<svg xmlns="http://www.w3.org/2000/svg" style="display: none;">
  <symbol role="img" viewBox="0 0 24 24" id="github">
    <path
      d="M12 .297c-6.63 0-12 5.373-12 12 0 5.303 3.438 9.8 8.205 11.385.6.113.82-.258.82-.577 0-.285-.01-1.04-.015-2.04-3.338.724-4.042-1.61-4.042-1.61C4.422 18.07 3.633 17.7 3.633 17.7c-1.087-.744.084-.729.084-.729 1.205.084 1.838 1.236 1.838 1.236 1.07 1.835 2.809 1.305 3.495.998.108-.776.417-1.305.76-1.605-2.665-.3-5.466-1.332-5.466-5.93 0-1.31.465-2.38 1.235-3.22-.135-.303-.54-1.523.105-3.176 0 0 1.005-.322 3.3 1.23.96-.267 1.98-.399 3-.405 1.02.006 2.04.138 3 .405 2.28-1.552 3.285-1.23 3.285-1.23.645 1.653.24 2.873.12 3.176.765.84 1.23 1.91 1.23 3.22 0 4.61-2.805 5.625-5.475 5.92.42.36.81 1.096.81 2.22 0 1.606-.015 2.896-.015 3.286 0 .315.21.69.825.57C20.565 22.092 24 17.592 24 12.297c0-6.627-5.373-12-12-12"
      fill="currentColor"
    />
  </symbol>

  <symbol viewBox="0 0 640 640" id="portfolio">
    <path
      d="M451.5 160C434.9 160 418.8 164.5 404.7 172.7C388.9 156.7 370.5 143.3 350.2 133.2C378.4 109.2 414.3 96 451.5 96C537.9 96 608 166 608 252.5C608 294 591.5 333.8 562.2 363.1L491.1 434.2C461.8 463.5 422 480 380.5 480C294.1 480 224 410 224 323.5C224 322 224 320.5 224.1 319C224.6 301.3 239.3 287.4 257 287.9C274.7 288.4 288.6 303.1 288.1 320.8C288.1 321.7 288.1 322.6 288.1 323.4C288.1 374.5 329.5 415.9 380.6 415.9C405.1 415.9 428.6 406.2 446 388.8L517.1 317.7C534.4 300.4 544.2 276.8 544.2 252.3C544.2 201.2 502.8 159.8 451.7 159.8zM307.2 237.3C305.3 236.5 303.4 235.4 301.7 234.2C289.1 227.7 274.7 224 259.6 224C235.1 224 211.6 233.7 194.2 251.1L123.1 322.2C105.8 339.5 96 363.1 96 387.6C96 438.7 137.4 480.1 188.5 480.1C205 480.1 221.1 475.7 235.2 467.5C251 483.5 269.4 496.9 289.8 507C261.6 530.9 225.8 544.2 188.5 544.2C102.1 544.2 32 474.2 32 387.7C32 346.2 48.5 306.4 77.8 277.1L148.9 206C178.2 176.7 218 160.2 259.5 160.2C346.1 160.2 416 230.8 416 317.1C416 318.4 416 319.7 416 321C415.6 338.7 400.9 352.6 383.2 352.2C365.5 351.8 351.6 337.1 352 319.4C352 318.6 352 317.9 352 317.1C352 283.4 334 253.8 307.2 237.5z"
      fill="currentColor" />
  </symbol>

  <symbol role="img" viewBox="0 0 24 24" id="instagram">
    <path
      d="M7.0301.084c-1.2768.0602-2.1487.264-2.911.5634-.7888.3075-1.4575.72-2.1228 1.3877-.6652.6677-1.075 1.3368-1.3802 2.127-.2954.7638-.4956 1.6365-.552 2.914-.0564 1.2775-.0689 1.6882-.0626 4.947.0062 3.2586.0206 3.6671.0825 4.9473.061 1.2765.264 2.1482.5635 2.9107.308.7889.72 1.4573 1.388 2.1228.6679.6655 1.3365 1.0743 2.1285 1.38.7632.295 1.6361.4961 2.9134.552 1.2773.056 1.6884.069 4.9462.0627 3.2578-.0062 3.668-.0207 4.9478-.0814 1.28-.0607 2.147-.2652 2.9098-.5633.7889-.3086 1.4578-.72 2.1228-1.3881.665-.6682 1.0745-1.3378 1.3795-2.1284.2957-.7632.4966-1.636.552-2.9124.056-1.2809.0692-1.6898.063-4.948-.0063-3.2583-.021-3.6668-.0817-4.9465-.0607-1.2797-.264-2.1487-.5633-2.9117-.3084-.7889-.72-1.4568-1.3876-2.1228C21.2982 1.33 20.628.9208 19.8378.6165 19.074.321 18.2017.1197 16.9244.0645 15.6471.0093 15.236-.005 11.977.0014 8.718.0076 8.31.0215 7.0301.0839m.1402 21.6932c-1.17-.0509-1.8053-.2453-2.2287-.408-.5606-.216-.96-.4771-1.3819-.895-.422-.4178-.6811-.8186-.9-1.378-.1644-.4234-.3624-1.058-.4171-2.228-.0595-1.2645-.072-1.6442-.079-4.848-.007-3.2037.0053-3.583.0607-4.848.05-1.169.2456-1.805.408-2.2282.216-.5613.4762-.96.895-1.3816.4188-.4217.8184-.6814 1.3783-.9003.423-.1651 1.0575-.3614 2.227-.4171 1.2655-.06 1.6447-.072 4.848-.079 3.2033-.007 3.5835.005 4.8495.0608 1.169.0508 1.8053.2445 2.228.408.5608.216.96.4754 1.3816.895.4217.4194.6816.8176.9005 1.3787.1653.4217.3617 1.056.4169 2.2263.0602 1.2655.0739 1.645.0796 4.848.0058 3.203-.0055 3.5834-.061 4.848-.051 1.17-.245 1.8055-.408 2.2294-.216.5604-.4763.96-.8954 1.3814-.419.4215-.8181.6811-1.3783.9-.4224.1649-1.0577.3617-2.2262.4174-1.2656.0595-1.6448.072-4.8493.079-3.2045.007-3.5825-.006-4.848-.0608M16.953 5.5864A1.44 1.44 0 1 0 18.39 4.144a1.44 1.44 0 0 0-1.437 1.4424M5.8385 12.012c.0067 3.4032 2.7706 6.1557 6.173 6.1493 3.4026-.0065 6.157-2.7701 6.1506-6.1733-.0065-3.4032-2.771-6.1565-6.174-6.1498-3.403.0067-6.156 2.771-6.1496 6.1738M8 12.0077a4 4 0 1 1 4.008 3.9921A3.9996 3.9996 0 0 1 8 12.0077"
      fill="currentColor" />
  </symbol>

  <symbol role="img" viewBox="0 0 24 24" xmlns="http://www.w3.org/2000/svg" id="X">
    <path
      d="M14.234 10.162 22.977 0h-2.072l-7.591 8.824L7.251 0H.258l9.168 13.343L.258 24H2.33l8.016-9.318L16.749 24h6.993zm-2.837 3.299-.929-1.329L3.076 1.56h3.182l5.965 8.532.929 1.329 7.754 11.09h-3.182z"
      fill="currentColor" />
  </symbol>

  <symbol>
    <svg role="img" viewBox="0 0 24 24" xmlns="http://www.w3.org/2000/svg" id="youtube">
      <path
        d="M23.498 6.186a3.016 3.016 0 0 0-2.122-2.136C19.505 3.545 12 3.545 12 3.545s-7.505 0-9.377.505A3.017 3.017 0 0 0 .502 6.186C0 8.07 0 12 0 12s0 3.93.502 5.814a3.016 3.016 0 0 0 2.122 2.136c1.871.505 9.376.505 9.376.505s7.505 0 9.377-.505a3.015 3.015 0 0 0 2.122-2.136C24 15.93 24 12 24 12s0-3.93-.502-5.814zM9.545 15.568V8.432L15.818 12l-6.273 3.568z"
        fill="currentColor" />
    </svg>
  </symbol>

  <symbol viewBox="0 0 640 640" id="html">
    <path fill="currentColor"
      d="M128 96L162.9 491.8L319.5 544L477.1 491.8L512 96L128 96zM436.2 223.9L252.4 223.9L256.5 273.3L432.1 273.3L418.5 421.7L320.6 448.7L320.6 449L319.5 449L220.8 421.7L214.8 345.9L262.5 345.9L266 384L319.5 398.5L373.2 384L379.2 321.8L212.3 321.8L199.5 176.2L440.6 176.2L436.2 223.9z" />
  </symbol>

  <symbol viewBox="0 0 640 640" id="css">
    <path
      d="M472.3 96L96 96L96 472.3C96 491.3 103.6 509.5 117 523C130.4 536.5 148.7 544 167.7 544L472.3 544C491.3 544 509.5 536.4 523 523C536.5 509.6 544 491.3 544 472.3L544 167.7C544 148.7 536.4 130.5 523 117C509.6 103.5 491.3 96 472.3 96zM428.4 495.4C420.7 486.9 416.7 474.7 416.4 458.8L447.7 458.8C447.9 472.9 452.8 479.9 462.5 479.9C467.4 479.9 470.9 478.3 473 475.2C475 472.1 476 467.2 476 460.4C476 455 474.7 450.5 472 447C468.5 442.8 463.9 439.5 458.8 437.5L447.2 432C436.9 427.1 429.4 421.2 424.7 414.4C420.2 407.6 418 398.1 418 386C418 372.4 422 361.4 429.8 352.9C437.9 344.4 448.9 340.2 463 340.2C476.6 340.2 487.1 344.4 494.5 352.7C502 361.1 506 373 506.3 388.6L476.2 388.6C476.4 383.5 475.3 378.4 473.2 373.8C471.5 370.4 468.2 368.7 463.2 368.7C454.4 368.7 450 373.9 450 384.4C450 389.7 451.1 393.8 453.2 397C456.3 400.5 460.2 403.2 464.6 404.8L475.7 409.7C487.2 415 495.4 421.4 500.5 429.1C505.6 436.8 508.1 447.1 508.1 460.1C508.1 475.6 504.1 487.5 495.8 495.8C487.6 504.1 476.3 508.3 461.7 508.3C447.1 508.3 436.1 504.1 428.3 495.6zM327.4 495.4C319.7 486.9 315.7 474.7 315.4 458.8L346.7 458.8C346.9 472.9 351.8 479.9 361.5 479.9C366.4 479.9 369.9 478.3 371.9 475.2C373.9 472.1 374.9 467.2 374.9 460.4C374.9 455 373.6 450.5 371 447C367.5 442.8 362.9 439.5 357.8 437.5L346.2 432C335.9 427.1 328.4 421.2 323.7 414.4C319.2 407.6 317 398.1 317 386C317 372.4 321 361.4 328.8 352.9C336.9 344.4 347.9 340.2 362 340.2C375.6 340.2 386.1 344.4 393.4 352.7C401 361.1 404.9 373 405.3 388.6L375.2 388.6C375.4 383.5 374.3 378.4 372.2 373.8C370.5 370.4 367.2 368.7 362.2 368.7C353.4 368.7 349 373.9 349 384.4C349 389.7 350.1 393.8 352.2 397C355.3 400.5 359.2 403.2 363.6 404.8L374.7 409.7C386.2 415 394.4 421.4 399.5 429.1C404.6 436.8 407.1 447.1 407.1 460.1C407.1 475.6 403 487.5 394.8 495.8C386.6 504.1 375.3 508.3 360.7 508.3C346.1 508.3 335.1 504.1 327.3 495.6zM221.8 496.5C213.4 488.8 209.3 477.3 209.3 462L209.3 386.6C209.3 371.4 213.7 359.9 222.5 352C231.4 344.2 243.2 340.2 257.7 340.2C271.8 340.2 282.9 344.2 291.1 352.2C299.4 360.2 303.6 372.2 303.6 388.1L303.6 394.1L270.5 394.1L270.5 388.3C270.5 382.2 269.2 377.6 266.5 374.7C265.4 373.2 263.9 372 262.2 371.2C260.5 370.4 258.7 370 256.8 370.1C251.4 370.1 247.6 371.9 245.4 375.7C243.1 380.9 242.1 386.5 242.4 392.1L242.4 457.6C242.4 471.3 247.2 478.2 256.8 478.4C261.3 478.4 264.7 476.8 267 473.6C269.5 469.5 270.7 464.8 270.5 460L270.5 455.1L303.6 455.1L303.6 460.2C303.6 470.8 301.5 479.7 297.4 486.8C293.4 493.7 287.5 499.3 280.3 502.8C272.6 506.5 264.2 508.3 255.7 508.1C241.5 508.1 230.2 504.2 221.9 496.5z"
      fill="currentColor" />
  </symbol>

  <symbol viewBox="0 0 640 640" id="js">
    <path fill="currentColor"
      d="M96 96L96 544L544 544L544 96L96 96zM339.8 445.4C339.8 489 314.2 508.9 276.9 508.9C243.2 508.9 223.7 491.5 213.7 470.4L248 449.7C254.6 461.4 260.6 471.3 275.1 471.3C288.9 471.3 297.7 465.9 297.7 444.8L297.7 301.7L339.8 301.7L339.8 445.4zM439.4 508.9C400.3 508.9 375 490.3 362.7 465.9L397 446.1C406 460.8 417.8 471.7 438.5 471.7C455.9 471.7 467.1 463 467.1 450.9C467.1 436.5 455.7 431.4 436.4 422.9L425.9 418.4C395.5 405.5 375.4 389.2 375.4 354.9C375.4 323.3 399.5 299.3 437 299.3C463.8 299.3 483 308.6 496.8 333L464 354C456.8 341.1 449 336 436.9 336C424.6 336 416.8 343.8 416.8 354C416.8 366.6 424.6 371.7 442.7 379.6L453.2 384.1C489 399.4 509.1 415.1 509.1 450.3C509.1 488.1 479.3 508.9 439.4 508.9z" />
  </symbol>

  <symbol viewBox="0 0 640 640" id="node">
    <path
      d="M320.5 572C313.8 572 307 570.2 301.1 566.8L239.4 530.3C230.2 525.1 234.7 523.3 237.7 522.3C250 518 252.5 517.1 265.6 509.6C267 508.8 268.8 509.1 270.2 510L317.6 538.1C319.3 539.1 321.7 539.1 323.3 538.1L508 431.5C509.7 430.5 510.8 428.5 510.8 426.5L510.8 213.3C510.8 211.2 509.7 209.3 507.9 208.2L323.3 101.7C321.6 100.7 319.3 100.7 317.6 101.7L133.1 208.3C131.3 209.3 130.2 211.3 130.2 213.4L130.2 426.5C130.2 428.5 131.3 430.5 133.1 431.4L183.7 460.6C211.2 474.3 228 458.2 228 441.9L228 231.5C228 228.5 230.4 226.2 233.4 226.2L256.8 226.2C259.7 226.2 262.2 228.5 262.2 231.5L262.2 442C262.2 478.6 242.2 499.6 207.5 499.6C196.8 499.6 188.4 499.6 165 488L116.6 460.1C104.6 453.2 97.2 440.3 97.2 426.4L97.2 213.3C97.2 199.5 104.6 186.5 116.6 179.6L301.1 73C312.8 66.4 328.3 66.4 339.9 73L524.6 179.7C536.6 186.6 544 199.5 544 213.4L544 426.5C544 440.3 536.6 453.2 524.6 460.2L339.9 566.8C334 570.2 327.3 572 320.5 572zM469.6 361.9C469.6 322 442.6 311.4 385.9 303.9C328.5 296.3 322.7 292.4 322.7 279C322.7 267.9 327.6 253.1 370.1 253.1C408 253.1 422 261.3 427.8 286.9C428.3 289.3 430.5 291.1 433 291.1L457 291.1C458.5 291.1 459.9 290.5 460.9 289.4C461.9 288.3 462.4 286.8 462.3 285.3C458.6 241.2 429.3 220.7 370.1 220.7C317.4 220.7 286 242.9 286 280.2C286 320.6 317.3 331.8 367.8 336.8C428.3 342.7 433 351.6 433 363.5C433 384.1 416.4 392.9 377.5 392.9C328.6 392.9 317.9 380.6 314.3 356.3C313.9 353.7 311.7 351.8 309 351.8L285.1 351.8C282.1 351.8 279.8 354.2 279.8 357.1C279.8 388.2 296.7 425.3 377.6 425.3C436 425.2 469.6 402.1 469.6 361.9z" 
      fill="currentColor"/>
  </symbol>
</svg>